<mxfile host="app.diagrams.net" modified="2021-11-16T06:10:30.904Z" agent="5.0 (Macintosh; Intel Mac OS X 10_15_7) AppleWebKit/537.36 (KHTML, like Gecko) Chrome/95.0.4638.69 Safari/537.36" etag="8bqk7gXmJv51vj3SQ5O1" version="15.7.4" type="github">
  <diagram id="KFFzcneVvBsyENHyXfAi" name="Page-1">
    <mxGraphModel dx="857" dy="564" grid="1" gridSize="10" guides="1" tooltips="1" connect="1" arrows="1" fold="1" page="1" pageScale="1" pageWidth="827" pageHeight="1169" math="0" shadow="0">
      <root>
        <mxCell id="0" />
        <mxCell id="1" parent="0" />
        <mxCell id="N4xzAzL_X3gvRXvn4Dn4-2" value="" style="swimlane;startSize=0;fillColor=#B2C9AB;strokeColor=#788AA3;fontColor=#46495D;" vertex="1" parent="1">
          <mxGeometry x="40" y="90" width="270" height="130" as="geometry" />
        </mxCell>
        <mxCell id="N4xzAzL_X3gvRXvn4Dn4-5" value="RootContainerLayout" style="text;html=1;strokeColor=none;fillColor=none;align=center;verticalAlign=middle;whiteSpace=wrap;rounded=0;fontColor=#46495D;" vertex="1" parent="N4xzAzL_X3gvRXvn4Dn4-2">
          <mxGeometry x="20" width="130" height="40" as="geometry" />
        </mxCell>
        <mxCell id="N4xzAzL_X3gvRXvn4Dn4-3" value="" style="swimlane;startSize=0;fillColor=#B2C9AB;strokeColor=#788AA3;fontColor=#46495D;" vertex="1" parent="N4xzAzL_X3gvRXvn4Dn4-2">
          <mxGeometry x="20" y="40" width="250" height="75" as="geometry" />
        </mxCell>
        <mxCell id="N4xzAzL_X3gvRXvn4Dn4-6" value="PrimaryContainerLayout" style="text;html=1;strokeColor=none;fillColor=none;align=center;verticalAlign=middle;whiteSpace=wrap;rounded=0;fontColor=#46495D;" vertex="1" parent="N4xzAzL_X3gvRXvn4Dn4-3">
          <mxGeometry x="50" y="20" width="60" height="30" as="geometry" />
        </mxCell>
        <mxCell id="N4xzAzL_X3gvRXvn4Dn4-7" value="" style="ellipse;whiteSpace=wrap;html=1;aspect=fixed;fillColor=#B2C9AB;strokeColor=#788AA3;fontColor=#46495D;" vertex="1" parent="N4xzAzL_X3gvRXvn4Dn4-3">
          <mxGeometry x="190" y="7.5" width="60" height="60" as="geometry" />
        </mxCell>
        <mxCell id="N4xzAzL_X3gvRXvn4Dn4-8" value="Tap" style="text;html=1;strokeColor=none;fillColor=none;align=center;verticalAlign=middle;whiteSpace=wrap;rounded=0;fontColor=#46495D;" vertex="1" parent="N4xzAzL_X3gvRXvn4Dn4-3">
          <mxGeometry x="190" y="20" width="60" height="30" as="geometry" />
        </mxCell>
        <mxCell id="N4xzAzL_X3gvRXvn4Dn4-4" style="edgeStyle=orthogonalEdgeStyle;rounded=0;orthogonalLoop=1;jettySize=auto;html=1;exitX=0.5;exitY=1;exitDx=0;exitDy=0;strokeColor=#788AA3;fontColor=#46495D;" edge="1" parent="N4xzAzL_X3gvRXvn4Dn4-2" source="N4xzAzL_X3gvRXvn4Dn4-3" target="N4xzAzL_X3gvRXvn4Dn4-3">
          <mxGeometry relative="1" as="geometry" />
        </mxCell>
        <mxCell id="N4xzAzL_X3gvRXvn4Dn4-9" value="" style="swimlane;startSize=0;fillColor=#B2C9AB;strokeColor=#788AA3;fontColor=#46495D;" vertex="1" parent="1">
          <mxGeometry x="90" y="250" width="220" height="130" as="geometry" />
        </mxCell>
        <mxCell id="N4xzAzL_X3gvRXvn4Dn4-10" value="RootContainerLayout" style="text;html=1;strokeColor=none;fillColor=none;align=center;verticalAlign=middle;whiteSpace=wrap;rounded=0;fontColor=#46495D;" vertex="1" parent="N4xzAzL_X3gvRXvn4Dn4-9">
          <mxGeometry x="20" width="130" height="40" as="geometry" />
        </mxCell>
        <mxCell id="N4xzAzL_X3gvRXvn4Dn4-11" value="" style="swimlane;startSize=0;fillColor=#B2C9AB;strokeColor=#788AA3;fontColor=#46495D;" vertex="1" parent="N4xzAzL_X3gvRXvn4Dn4-9">
          <mxGeometry x="-30" y="40" width="250" height="75" as="geometry" />
        </mxCell>
        <mxCell id="N4xzAzL_X3gvRXvn4Dn4-12" value="PrimaryContainerLayout" style="text;html=1;strokeColor=none;fillColor=none;align=center;verticalAlign=middle;whiteSpace=wrap;rounded=0;fontColor=#46495D;" vertex="1" parent="N4xzAzL_X3gvRXvn4Dn4-11">
          <mxGeometry x="50" y="20" width="60" height="30" as="geometry" />
        </mxCell>
        <mxCell id="N4xzAzL_X3gvRXvn4Dn4-13" value="" style="ellipse;whiteSpace=wrap;html=1;aspect=fixed;fillColor=#B2C9AB;strokeColor=#788AA3;fontColor=#46495D;" vertex="1" parent="N4xzAzL_X3gvRXvn4Dn4-11">
          <mxGeometry x="190" y="7.5" width="60" height="60" as="geometry" />
        </mxCell>
        <mxCell id="N4xzAzL_X3gvRXvn4Dn4-14" value="Tap" style="text;html=1;strokeColor=none;fillColor=none;align=center;verticalAlign=middle;whiteSpace=wrap;rounded=0;fontColor=#46495D;" vertex="1" parent="N4xzAzL_X3gvRXvn4Dn4-11">
          <mxGeometry x="190" y="20" width="60" height="30" as="geometry" />
        </mxCell>
        <mxCell id="N4xzAzL_X3gvRXvn4Dn4-15" style="edgeStyle=orthogonalEdgeStyle;rounded=0;orthogonalLoop=1;jettySize=auto;html=1;exitX=0.5;exitY=1;exitDx=0;exitDy=0;strokeColor=#788AA3;fontColor=#46495D;" edge="1" parent="N4xzAzL_X3gvRXvn4Dn4-9" source="N4xzAzL_X3gvRXvn4Dn4-11" target="N4xzAzL_X3gvRXvn4Dn4-11">
          <mxGeometry relative="1" as="geometry" />
        </mxCell>
        <mxCell id="N4xzAzL_X3gvRXvn4Dn4-16" value="" style="swimlane;startSize=0;fillColor=#B2C9AB;strokeColor=#788AA3;fontColor=#46495D;" vertex="1" parent="1">
          <mxGeometry x="250" y="410" width="60" height="130" as="geometry" />
        </mxCell>
        <mxCell id="N4xzAzL_X3gvRXvn4Dn4-17" value="RootContainerLayout" style="text;html=1;strokeColor=none;fillColor=none;align=center;verticalAlign=middle;whiteSpace=wrap;rounded=0;fontColor=#46495D;" vertex="1" parent="N4xzAzL_X3gvRXvn4Dn4-16">
          <mxGeometry x="20" width="130" height="40" as="geometry" />
        </mxCell>
        <mxCell id="N4xzAzL_X3gvRXvn4Dn4-18" value="" style="swimlane;startSize=0;fillColor=#B2C9AB;strokeColor=#788AA3;fontColor=#46495D;" vertex="1" parent="1">
          <mxGeometry x="60" y="440" width="250" height="75" as="geometry" />
        </mxCell>
        <mxCell id="N4xzAzL_X3gvRXvn4Dn4-19" value="PrimaryContainerLayout" style="text;html=1;strokeColor=none;fillColor=none;align=center;verticalAlign=middle;whiteSpace=wrap;rounded=0;fontColor=#46495D;" vertex="1" parent="N4xzAzL_X3gvRXvn4Dn4-18">
          <mxGeometry x="50" y="20" width="60" height="30" as="geometry" />
        </mxCell>
        <mxCell id="N4xzAzL_X3gvRXvn4Dn4-20" value="" style="ellipse;whiteSpace=wrap;html=1;aspect=fixed;fillColor=#B2C9AB;strokeColor=#788AA3;fontColor=#46495D;" vertex="1" parent="N4xzAzL_X3gvRXvn4Dn4-18">
          <mxGeometry x="190" y="7.5" width="60" height="60" as="geometry" />
        </mxCell>
        <mxCell id="N4xzAzL_X3gvRXvn4Dn4-21" value="Tap" style="text;html=1;strokeColor=none;fillColor=none;align=center;verticalAlign=middle;whiteSpace=wrap;rounded=0;fontColor=#46495D;" vertex="1" parent="N4xzAzL_X3gvRXvn4Dn4-18">
          <mxGeometry x="190" y="20" width="60" height="30" as="geometry" />
        </mxCell>
        <mxCell id="N4xzAzL_X3gvRXvn4Dn4-22" style="edgeStyle=orthogonalEdgeStyle;rounded=0;orthogonalLoop=1;jettySize=auto;html=1;exitX=0.5;exitY=1;exitDx=0;exitDy=0;strokeColor=#788AA3;fontColor=#46495D;" edge="1" parent="1" source="N4xzAzL_X3gvRXvn4Dn4-18" target="N4xzAzL_X3gvRXvn4Dn4-18">
          <mxGeometry relative="1" as="geometry" />
        </mxCell>
        <mxCell id="N4xzAzL_X3gvRXvn4Dn4-23" value="&lt;br&gt;初始状态：&lt;br&gt;最低层：RootContainerLayout&lt;br&gt;中间层：PrimaryContainerLayout&lt;br&gt;最上层：TapButton" style="text;html=1;strokeColor=none;fillColor=none;spacing=5;spacingTop=-20;whiteSpace=wrap;overflow=hidden;rounded=0;sketch=0;fontColor=#46495D;" vertex="1" parent="1">
          <mxGeometry x="360" y="100" width="160" height="100" as="geometry" />
        </mxCell>
        <mxCell id="N4xzAzL_X3gvRXvn4Dn4-24" value="动画过程中&lt;br&gt;逐渐缩小RootContainerlayout的宽度，同时保持PrimaryContainerLayout的宽度不变，使用RootContainerlayout的遮挡效果实现左侧的菜单项逐渐消去的效果" style="text;html=1;strokeColor=none;fillColor=none;spacing=5;spacingTop=-20;whiteSpace=wrap;overflow=hidden;rounded=0;sketch=0;fontColor=#46495D;" vertex="1" parent="1">
          <mxGeometry x="350" y="260" width="180" height="110" as="geometry" />
        </mxCell>
        <mxCell id="N4xzAzL_X3gvRXvn4Dn4-25" value="动画结束&lt;br&gt;宽度缩小至TapButton的宽度" style="text;html=1;strokeColor=none;fillColor=none;spacing=5;spacingTop=-20;whiteSpace=wrap;overflow=hidden;rounded=0;sketch=0;fontColor=#46495D;" vertex="1" parent="1">
          <mxGeometry x="350" y="460" width="140" height="50" as="geometry" />
        </mxCell>
      </root>
    </mxGraphModel>
  </diagram>
</mxfile>
